<?xml version="1.0" encoding="UTF-8"?>
<svg xmlns="http://www.w3.org/2000/svg" width="200" height="100" viewBox="0 0 240 86">
  <g>
    <path d="M147.41,27.24H130.74a8.45,8.45,0,0,1,8.17-6.29c4.34,0,7.31,2.17,8.51,6.29m-16.9,5.67h24.55c0-.51.06-1,.06-1.55,0-4.06-.86-7.32-2.91-10.07a16.3,16.3,0,0,0-13.3-6.88,16.12,16.12,0,0,0-15.76,16.26A16.49,16.49,0,0,0,127.71,42a15.43,15.43,0,0,0,11.48,4.77c6.78,0,12.2-3.81,14.82-10.53h-7.71A8.24,8.24,0,0,1,139,40c-4.84,0-8-2.74-8.5-7.14" fill="#fff"></path>
    <path d="M166.28,30.81a8.82,8.82,0,0,1,8.8-9.19A9,9,0,0,1,184,30.69a8.89,8.89,0,0,1-9.26,9,8.65,8.65,0,0,1-8.46-8.9m-.29-13V5.42h-7V46h7V43.5a15,15,0,0,0,9.55,3.23,15.13,15.13,0,0,0,10.06-3.57,16.36,16.36,0,0,0,5.77-12.59,16.12,16.12,0,0,0-5.2-11.93,15.2,15.2,0,0,0-10.57-4.06,14,14,0,0,0-9.6,3.19" fill="#fff"></path>
    <path d="M196.28,15.35h6.87V46h-6.87Zm0-9.93h6.87V12.2h-6.87Z" fill="#fff"></path>
    <path d="M215,30.39a8.73,8.73,0,0,1,8.72-8.78,9,9,0,0,1,8.61,9.12A8.67,8.67,0,1,1,215,30.39M233.18,46H240V15.35h-6.87V19c-2.08-3-5.27-4.43-9.72-4.43a14.74,14.74,0,0,0-11.35,4.7,16,16,0,0,0-4.39,11.21c0,9.12,6.78,16.14,15.91,16.14,4.73,0,7.81-1.37,9.52-4.45Z" fill="#fff"></path>
    <polygon points="60.58 59.38 79.41 59.38 99.57 39.22 119.73 59.38 138.56 59.38 108.98 29.81 138.8 0 119.97 0 99.57 20.4 79.17 0 60.34 0 90.15 29.81 60.58 59.38" fill="#fff"></polygon>
    <path d="M59.28,44.84a3.14,3.14,0,0,0-.92-1.19,2.86,2.86,0,0,0-1.24-.6.75.75,0,0,0-.9.32,78.25,78.25,0,0,1-4.5,7.46q-2.26,3.28-4.4,5.94t-4.1,4.83q-2,2.16-3.56,4.1.6-2.34,1.64-5.22t2.31-5.87q1.27-3,2.69-5.92T49,43.25q1.32-2.51,2.49-4.4a21.18,21.18,0,0,1,2-2.79,1,1,0,0,0-.17-1,5.75,5.75,0,0,0-1-1.17,7.36,7.36,0,0,0-1.32-1,2.47,2.47,0,0,0-1.14-.4q-.45,0-1.12.79a16.59,16.59,0,0,0-1.52,2.24q-1.29,1.39-3,3.33L40.77,43l-3.61,4.23L33.93,51q-1.44,1.67-2.41,2.69t-1.17,1a5.82,5.82,0,0,1,.55-2.51q.65-1.67,1.64-3.68t2.16-4.13q1.17-2.11,2.19-3.91l1.69-3a6,6,0,0,0,.67-1.39,2.13,2.13,0,0,0-.3-.87A10.35,10.35,0,0,0,38.23,34a6.36,6.36,0,0,0-.92-1,1.5,1.5,0,0,0-1-.45q-.4,0-1.42,1.37a39.35,39.35,0,0,0-2.29,3.53Q31.34,39.59,30,42.25c-.37.71-.71,1.41-1,2.11l-.1.15q-.52.85-1.29,2t-1.82,2.41a19.44,19.44,0,0,1-2.31,2.36,15,15,0,0,1-2.76,1.89,8.16,8.16,0,0,1-3.13.95,29.4,29.4,0,0,0,2.21-3.19,26.34,26.34,0,0,0,1.77-3.48,22.29,22.29,0,0,0,1.17-3.66,16.53,16.53,0,0,0,.42-3.66,6,6,0,0,0-.75-2.89,10.1,10.1,0,0,0-1.84-2.46,8.85,8.85,0,0,0-2.41-1.69,5.73,5.73,0,0,0-2.41-.62,7.07,7.07,0,0,0-2.46.45,11.5,11.5,0,0,0-2.41,1.24q1.29-2.93,2.51-5.57t2.19-4.68l1.57-3.31a8.55,8.55,0,0,0,.6-1.42A2.58,2.58,0,0,0,17,17.85a8.91,8.91,0,0,0-1.34-1.47,4.44,4.44,0,0,0-1.34-.84q-.62-.22-.62.47a7.69,7.69,0,0,1-.6,2q-.6,1.54-1.57,3.81l-2.19,5.1L6.87,32.75q-1.29,3-2.51,6T2.16,44.57q-1,2.74-1.57,5A14.53,14.53,0,0,0,0,53.12a7.9,7.9,0,0,0,.69,3.43A8.86,8.86,0,0,0,2.24,58.9a5.18,5.18,0,0,0,1.55,1.19q.69.3.69-.05a1.93,1.93,0,0,0-.09-.65,5.08,5.08,0,0,1-.18-.7q-.09-.45-.18-1.22a20.2,20.2,0,0,1-.09-2.21,14.08,14.08,0,0,1,.35-2.89q.35-1.64.9-3.53a29.22,29.22,0,0,1,5.65-8.56,17.39,17.39,0,0,1,3.71-3,7.58,7.58,0,0,1,3.88-1.14q.7,0,.92.82a6.32,6.32,0,0,1,.22,1.67,17.92,17.92,0,0,1-1.42,6.94,25.4,25.4,0,0,1-3.56,6.09A20.19,20.19,0,0,1,9.9,56,8.79,8.79,0,0,1,5.12,57.7q-.8,0-.85.4a1.09,1.09,0,0,0,.45.87,4.81,4.81,0,0,0,1.42.87,5.14,5.14,0,0,0,2.06.4h.2a28.64,28.64,0,0,0,7.74-1,29,29,0,0,0,6.09-2.41A24.5,24.5,0,0,0,25.12,55a4.81,4.81,0,0,0,0,.67,3,3,0,0,0,.65,1.42,7.91,7.91,0,0,0,1.47,1.52A12,12,0,0,0,29,59.79a3.57,3.57,0,0,0,1.67.5,2.79,2.79,0,0,0,1.17-.7q.87-.7,2.11-1.89T36.72,55q1.49-1.54,3.08-3.23-1.34,3.33-2.64,6.74T34.7,65.14q-1.17,3.26-2.14,6.19t-1.69,5.25q-.72,2.31-1.09,3.88a8.06,8.06,0,0,0-.32,2.06c0,.27.26.65.77,1.17a14.9,14.9,0,0,0,1.64,1.42,5.1,5.1,0,0,0,1.57.85q.7.2.65-.6a9.31,9.31,0,0,1,1.14-4.83,44.91,44.91,0,0,1,3.61-6q2.26-3.26,5.12-6.87t5.7-7.26q2.84-3.66,5.4-7.24a53.27,53.27,0,0,0,4.2-6.82A1.69,1.69,0,0,0,59.28,44.84Z" fill="#629bff" opacity="0.5"></path>
  </g>
</svg>
