<svg xmlns="http://www.w3.org/2000/svg" width="48" height="48" viewBox="0 0 48 48">
    <g transform="translate(-658.82 -359.719)">
        <path
            d="M682.913,381.22H682.9a1,1,0,0,1-.987-1.013l.128-10a1,1,0,1,1,2,.025l-.127,10A1,1,0,0,1,682.913,381.22Z" />
        <path
            d="M682.824,394.539h-.145a10.971,10.971,0,0,1-7.517-18.825,10.379,10.379,0,0,1,3.232-2.167,1,1,0,1,1,.784,1.84,8.4,8.4,0,0,0-2.615,1.755,8.97,8.97,0,0,0,6.142,15.4,9.077,9.077,0,0,0,6.375-2.546,8.968,8.968,0,0,0,.163-12.684,9.718,9.718,0,0,0-2.595-1.836,1,1,0,0,1,.873-1.8,11.732,11.732,0,0,1,3.142,2.226,10.97,10.97,0,0,1-7.839,18.64Z" />
        <path
            d="M682.913,381.22H682.9a1,1,0,0,1-.987-1.013l.128-10a1,1,0,1,1,2,.025l-.127,10A1,1,0,0,1,682.913,381.22Z" />
        <path
            d="M682.824,394.539h-.145a10.971,10.971,0,0,1-7.517-18.825,10.379,10.379,0,0,1,3.232-2.167,1,1,0,1,1,.784,1.84,8.4,8.4,0,0,0-2.615,1.755,8.97,8.97,0,0,0,6.142,15.4,9.077,9.077,0,0,0,6.375-2.546,8.968,8.968,0,0,0,.163-12.684,9.718,9.718,0,0,0-2.595-1.836,1,1,0,0,1,.873-1.8,11.732,11.732,0,0,1,3.142,2.226,10.97,10.97,0,0,1-7.839,18.64Z" />
    </g>
</svg>