<svg width="50" height="50" viewBox="0 0 50 50" fill="none" xmlns="http://www.w3.org/2000/svg">
    <g opacity="0.6">
        <path opacity="0.6"
            d="M11.668 31.6673V18.3333C11.6698 17.7446 11.9045 17.1805 12.3208 16.7642C12.7371 16.3479 13.3012 16.1132 13.89 16.1113H36.112C36.7007 16.1132 37.2648 16.3479 37.6811 16.7642C38.0974 17.1805 38.3321 17.7446 38.334 18.3333V31.6663C38.3321 32.2551 38.0974 32.8192 37.6811 33.2355C37.2648 33.6518 36.7007 33.8865 36.112 33.8883H13.89C13.3014 33.8865 12.7374 33.6519 12.3212 33.2358C11.9049 32.8197 11.6701 32.2559 11.668 31.6673Z"
            stroke="black" stroke-miterlimit="10" stroke-linecap="round" stroke-linejoin="round" />
        <path opacity="0.6" d="M12.7793 17.2227L25.0013 27.2227L37.2233 17.2227" stroke="black"
            stroke-miterlimit="10" stroke-linecap="round" stroke-linejoin="round" />
    </g>
</svg>
