<svg width="50" height="50" viewBox="0 0 50 50" fill="none" xmlns="http://www.w3.org/2000/svg">
    <g opacity="0.6">
        <path opacity="0.6"
            d="M21.6654 21.6668V31.1108C21.6654 31.9949 22.0166 32.8428 22.6417 33.468C23.2669 34.0931 24.1148 34.4443 24.9989 34.4443C25.883 34.4443 26.7308 34.0931 27.356 33.468C27.9812 32.8428 28.3324 31.9949 28.3324 31.1108V17.2218C28.3324 16.0431 27.8641 14.9126 27.0306 14.0791C26.1971 13.2456 25.0666 12.7773 23.8879 12.7773C22.7091 12.7773 21.5786 13.2456 20.7451 14.0791C19.9116 14.9126 19.4434 16.0431 19.4434 17.2218V31.6658C19.463 33.1263 20.0569 34.5204 21.0966 35.5462C22.1363 36.5721 23.5382 37.1473 24.9989 37.1473C26.4595 37.1473 27.8614 36.5721 28.9011 35.5462C29.9408 34.5204 30.5348 33.1263 30.5544 31.6658V18.3338"
            stroke="black" stroke-miterlimit="10" stroke-linecap="round" stroke-linejoin="round" />
    </g>
</svg>
