<svg xmlns="http://www.w3.org/2000/svg" width="200" height="46.916" viewBox="0 0 200 46.916">
    <path
        d="M307.655,199.308a10.111,10.111,0,0,0-8.9-4.6c-6.377,0-11.173,4.993-11.173,12.062,0,6.919,4.648,11.813,11.073,11.813a10.773,10.773,0,0,0,9-4.549v16.105h2.224V195.206h-2.224Zm-8.9,17.2c-5.14,0-8.849-4.348-8.849-9.885,0-5.437,3.856-9.837,9-9.837,5.338,0,8.9,4.448,8.9,10.084a9.1,9.1,0,0,1-8.539,9.624q-.252.015-.506.016Z"
        transform="translate(-233.752 -183.227)" />
    <path
        d="M328.562,198.171V195.2h-2.225v22.787h2.225V205.728c0-4.943.246-6.13,1.581-7.513a4.129,4.129,0,0,1,3.063-1.483,3.375,3.375,0,0,1,1.631.494l1.187-1.978a4.873,4.873,0,0,0-2.422-.544A5.482,5.482,0,0,0,328.562,198.171Z"
        transform="translate(-242.203 -183.227)" />
    <path
        d="M352.8,216.509a9.51,9.51,0,0,1-9.394-9.624c0-.054,0-.109,0-.163a9.619,9.619,0,0,1,9.3-9.931l.144,0a11.133,11.133,0,0,1,7.958,3.752v-2.971A12.579,12.579,0,0,0,352.9,194.7a11.94,11.94,0,0,0-.1,23.876,13.035,13.035,0,0,0,8.3-3.163V212.4A11.07,11.07,0,0,1,352.8,216.509Z"
        transform="translate(-245.431 -183.227)" />
    <path
        d="M384.586,194.713a11.939,11.939,0,1,0,11.961,11.917v0a11.9,11.9,0,0,0-11.885-11.913Zm0,21.8a9.863,9.863,0,1,1,9.636-10.085c0,.067,0,.134,0,.2a9.738,9.738,0,0,1-9.587,9.885Z"
        transform="translate(-252.306 -183.23)" />
    <path
        d="M429.6,195.959a10.723,10.723,0,0,0-8.948-4.448c-6.568,0-11.122,4.943-11.122,11.765,0,6.871,4.692,12.111,11.172,12.111a10.082,10.082,0,0,0,8.9-4.691v4.1h2.223V180.027H429.6Zm-8.8,17.357c-5.19,0-8.947-4.348-8.947-10.182a9.143,9.143,0,0,1,8.735-9.533l.163-.005a8.985,8.985,0,0,1,9.016,8.953q0,.319-.02.637c0,5.77-3.611,10.125-8.948,10.125Z"
        transform="translate(-260.345 -180.027)" />
    <path
        d="M457.641,216.512c-5.043,0-8.849-4.1-8.849-9.638h19.576c0-7.019-4.548-12.161-10.875-12.161-6.525,0-11.173,5.24-11.173,12.012,0,6.724,4.648,11.863,11.221,11.863a11.028,11.028,0,0,0,10.084-6.178l-1.877-1.137C463.523,214.931,461.151,216.512,457.641,216.512Zm-.2-19.722c4.151,0,7.464,3.263,8.354,7.959H448.94a8.855,8.855,0,0,1,8.5-7.959Z"
        transform="translate(-268.367 -183.23)" />
    <path
        d="M277.443,180.027H265.649l-17.56,17.558-17.555-17.558H218.739l23.455,23.455-23.455,23.455h11.793l17.557-17.558,17.561,17.558h11.793l-23.455-23.455Z"
        transform="translate(-218.739 -180.027)" />
</svg>