<?xml version="1.0" encoding="UTF-8"?>
<svg xmlns="http://www.w3.org/2000/svg" width="200" height="100" viewBox="0 0 450 324">
  <g>
    <polygon points="133.1 111.94 101.19 111.94 66.61 146.52 31.91 111.94 0 111.94 50.6 162.54 0.36 212.65 32.4 212.65 66.61 178.43 100.83 212.65 132.74 212.65 82.51 162.54 133.1 111.94" fill="#fff"></polygon>
    <path d="M175,138.56l-.2,7.09a20.27,20.27,0,0,0-7.25-6.73,22.66,22.66,0,0,0-10.72-2.44,24,24,0,0,0-10.62,2.24,21.94,21.94,0,0,0-7.62,6.13A26.78,26.78,0,0,0,134,154a40.23,40.23,0,0,0-1.53,11.22c0,9.53,1.92,16.7,5.7,21.31s9.35,7,16.54,7a21.55,21.55,0,0,0,11.6-3.32A29.35,29.35,0,0,0,174.8,182v30.94h1.95V137.38h-.64A1,1,0,0,0,175,138.56Zm-.23,9.88v30.71a30.33,30.33,0,0,1-8.9,9.24,20.13,20.13,0,0,1-11.16,3.36c-6.62,0-11.71-2.18-15.12-6.49s-5.16-11.08-5.16-20.07a39.62,39.62,0,0,1,1.38-10.66A25.35,25.35,0,0,1,140,146a19.63,19.63,0,0,1,7-5.7,22.2,22.2,0,0,1,9.88-2.07,19.51,19.51,0,0,1,17.94,10.25Z" fill="#fff"></path>
    <path d="M222.34,137a21.36,21.36,0,0,0-5-.57,19.57,19.57,0,0,0-6.85,1.14A16.49,16.49,0,0,0,205,141a21.42,21.42,0,0,0-4.14,5.42,34.2,34.2,0,0,0-2.37,5.49l-.15-13.31c0-.76-.39-1.2-1.08-1.2h-.64v55.43h1.94V156.52c1.73-5.8,4.12-10.34,7.08-13.49a15.31,15.31,0,0,1,11.64-4.72,18.68,18.68,0,0,1,3.44.28,20.6,20.6,0,0,1,2.48.6c.68.22,1.23.42,1.65.61a2.92,2.92,0,0,0,1,.3.66.66,0,0,0,.62-.28l.06-.1.15-.24.36-.72-.28-.13A23.59,23.59,0,0,0,222.34,137Z" fill="#fff"></path>
    <path d="M276.26,185.27c-.24,0-.59.13-1.55,1.1a17.13,17.13,0,0,1-2.91,2.2,22.87,22.87,0,0,1-4.91,2.21,23.39,23.39,0,0,1-7.29,1,21.37,21.37,0,0,1-8.8-1.76,18.51,18.51,0,0,1-6.75-5.15,24,24,0,0,1-4.34-8.35,39,39,0,0,1-1.53-11.41,38.41,38.41,0,0,1,1.53-11.21,24.32,24.32,0,0,1,4.39-8.46,19.32,19.32,0,0,1,7-5.35,22.65,22.65,0,0,1,9.39-1.87,22,22,0,0,1,6.32.8,24.58,24.58,0,0,1,4.37,1.74,14.94,14.94,0,0,1,2.63,1.72c.89.78,1.23.89,1.46.89a.93.93,0,0,0,.66-.31l.56-.56-.24-.21a23.22,23.22,0,0,0-6.77-4.17,23.61,23.61,0,0,0-9-1.62,24.4,24.4,0,0,0-10.22,2.07,21.57,21.57,0,0,0-7.63,5.82,26,26,0,0,0-4.75,9,39.46,39.46,0,0,0-1.64,11.7,40.19,40.19,0,0,0,1.64,12,25.91,25.91,0,0,0,4.67,8.91,20.18,20.18,0,0,0,7.36,5.59,23.6,23.6,0,0,0,9.69,1.93,26.1,26.1,0,0,0,6.06-.68,27.19,27.19,0,0,0,5.09-1.73,20.37,20.37,0,0,0,3.92-2.33,11.76,11.76,0,0,0,2.52-2.56l.14-.2-.4-.4A.94.94,0,0,0,276.26,185.27Z" fill="#fff"></path>
    <path d="M328.27,144.37a21.26,21.26,0,0,0-7.63-5.82,27.06,27.06,0,0,0-20.75,0,21.33,21.33,0,0,0-7.61,5.82,25.65,25.65,0,0,0-4.67,9,40.79,40.79,0,0,0-1.58,11.7,40.2,40.2,0,0,0,1.58,11.64,25.64,25.64,0,0,0,4.67,9,20.74,20.74,0,0,0,7.61,5.76,27.73,27.73,0,0,0,20.75,0,20.67,20.67,0,0,0,7.64-5.76,25.64,25.64,0,0,0,4.67-9,40.31,40.31,0,0,0,1.58-11.64,40.93,40.93,0,0,0-1.58-11.7A25.62,25.62,0,0,0,328.27,144.37Zm4.31,20.72A39.89,39.89,0,0,1,331.16,176a23.88,23.88,0,0,1-4.2,8.4,19,19,0,0,1-7,5.4,25.53,25.53,0,0,1-19.47,0,19.08,19.08,0,0,1-6.94-5.4,23.82,23.82,0,0,1-4.2-8.4,43.14,43.14,0,0,1,0-21.91,24.34,24.34,0,0,1,4.2-8.48,19.1,19.1,0,0,1,6.94-5.48,25.19,25.19,0,0,1,19.47,0,19,19,0,0,1,7,5.48,24.41,24.41,0,0,1,4.2,8.48A40.17,40.17,0,0,1,332.58,165.09Z" fill="#fff"></path>
    <path d="M387.41,145.61a20.26,20.26,0,0,0-7.22-6.69,22.66,22.66,0,0,0-10.71-2.44,23.94,23.94,0,0,0-10.62,2.24,22,22,0,0,0-7.63,6.13,26.58,26.58,0,0,0-4.58,9.14,40.15,40.15,0,0,0-1.52,11.22c0,9.54,1.91,16.71,5.69,21.31s9.36,7,16.54,7a21.53,21.53,0,0,0,11.6-3.32,29.44,29.44,0,0,0,8.49-8.18l.2,9.63c0,.76.39,1.2,1.08,1.2h.64V111.64h-1.94Zm0,2.89v30.65a30.35,30.35,0,0,1-8.9,9.24,20.14,20.14,0,0,1-11.17,3.36c-6.62,0-11.71-2.18-15.12-6.49s-5.16-11.08-5.16-20.07a39.52,39.52,0,0,1,1.39-10.66,25.26,25.26,0,0,1,4.17-8.57,19.64,19.64,0,0,1,7-5.7,22.18,22.18,0,0,1,9.88-2.07,21,21,0,0,1,10,2.34A22.33,22.33,0,0,1,387.41,148.51Z" fill="#fff"></path>
    <path d="M448.42,150.19a22,22,0,0,0-4.4-7.52,18.39,18.39,0,0,0-6.62-4.63,21.39,21.39,0,0,0-8.17-1.56,24.93,24.93,0,0,0-10.22,2,21.53,21.53,0,0,0-7.63,5.64,25.08,25.08,0,0,0-4.75,8.69A36.07,36.07,0,0,0,405,164a42.14,42.14,0,0,0,1.69,12.4,26.79,26.79,0,0,0,4.84,9.28,20.88,20.88,0,0,0,7.69,5.82,25.09,25.09,0,0,0,10.25,2,28.93,28.93,0,0,0,6.27-.68,33.37,33.37,0,0,0,5.62-1.75,26.15,26.15,0,0,0,4.47-2.35,13.24,13.24,0,0,0,2.89-2.49l.17-.21-.41-.42a.94.94,0,0,0-.66-.31c-.22,0-.6.13-1.68,1.08a19.89,19.89,0,0,1-3.3,2.2,28.22,28.22,0,0,1-5.48,2.21,27.54,27.54,0,0,1-7.88,1,23,23,0,0,1-9.25-1.82,19.39,19.39,0,0,1-7.11-5.32,24.71,24.71,0,0,1-4.56-8.68,40.61,40.61,0,0,1-1.61-12v-1.51a9.83,9.83,0,0,1,.08-1.21h42a1.09,1.09,0,0,0,.65-.2.77.77,0,0,0,.32-.66A30.55,30.55,0,0,0,448.42,150.19Zm-41.3,9.45a31.18,31.18,0,0,1,2.15-8.59,21.39,21.39,0,0,1,4.49-6.87,19.75,19.75,0,0,1,6.7-4.41,23.32,23.32,0,0,1,8.76-1.57,19.54,19.54,0,0,1,7.49,1.43,17.08,17.08,0,0,1,6,4.18,19.34,19.34,0,0,1,4,6.8,27.69,27.69,0,0,1,1.44,9Z" fill="#fff"></path>
    <path d="M372.8,0H328.43V2.4H372.8a14.82,14.82,0,0,1,14.8,14.8V61.58H390V17.2A17.22,17.22,0,0,0,372.8,0Z" fill="#629bff"></path>
    <polygon points="168.63 10.26 178.89 10.26 178.89 0 168.63 0 158.36 0 148.1 0 137.84 0 137.84 10.26 137.84 20.52 137.84 30.79 148.1 30.79 148.1 20.52 158.36 20.52 158.36 10.26 168.63 10.26" fill="#629bff"></polygon>
    <polygon points="178.89 30.79 168.63 30.79 168.63 20.52 158.36 20.52 158.36 30.79 158.36 41.05 158.36 51.31 168.63 51.31 168.63 41.05 178.89 41.05 178.89 30.79" fill="#629bff"></polygon>
    <rect x="178.89" y="51.31" width="10.26" height="10.26" fill="#629bff"></rect>
    <rect x="189.15" width="10.26" height="10.26" fill="#629bff"></rect>
    <rect x="86.53" y="20.53" width="20.53" height="20.53" fill="#629bff"></rect>
    <polygon points="137.84 51.31 137.84 61.58 148.1 61.58 148.1 51.31 148.1 41.05 137.84 41.05 137.84 51.31" fill="#629bff"></polygon>
    <path d="M66,17.2V61.58h61.58V0H83.2A17.22,17.22,0,0,0,66,17.2Zm51.31,34.11H76.26V10.26h41.05Z" fill="#629bff"></path>
    <path d="M68.4,306.8V262.42H66V306.8A17.22,17.22,0,0,0,83.2,324h44.37v-2.4H83.2A14.82,14.82,0,0,1,68.4,306.8Z" fill="#629bff"></path>
    <polygon points="277.8 313.8 277.8 324 288 324 298.2 324 298.2 313.8 288 313.8 277.8 313.8" fill="#629bff"></polygon>
    <polygon points="298.2 283.2 298.2 273 288 273 288 283.2 277.8 283.2 277.8 293.4 288 293.4 288 303.6 298.2 303.6 298.2 293.4 298.2 283.2" fill="#629bff"></polygon>
    <rect x="267.6" y="262.8" width="10.2" height="10.2" fill="#629bff"></rect>
    <rect x="257.4" y="313.8" width="10.2" height="10.2" fill="#629bff"></rect>
    <polygon points="308.4 303.6 298.2 303.6 298.2 313.8 308.4 313.8 318.6 313.8 318.6 303.6 318.6 293.4 308.4 293.4 308.4 303.6" fill="#629bff"></polygon>
    <polygon points="308.4 273 308.4 283.2 318.6 283.2 318.6 273 318.6 262.8 308.4 262.8 308.4 273" fill="#629bff"></polygon>
    <path d="M328.8,324h44A17.22,17.22,0,0,0,390,306.8v-44H328.8ZM339,273h40.8v40.8H339Z" fill="#629bff"></path>
    <rect x="349.2" y="283.2" width="20.4" height="20.4" fill="#629bff"></rect>
  </g>
</svg>
